<?xml version="1.0" encoding="UTF-8" standalone="no"?>
<svg width="25px" height="25px" viewBox="0 0 25 25" version="1.1" xmlns="http://www.w3.org/2000/svg" xmlns:xlink="http://www.w3.org/1999/xlink" xmlns:sketch="http://www.bohemiancoding.com/sketch/ns">
    <title>Slice 2</title>
    <description>Created with Sketch (http://www.bohemiancoding.com/sketch)</description>
    <defs></defs>
    <g id="Page 1" stroke="none" stroke-width="1" fill="none" fill-rule="evenodd">
        <g id="Group" transform="translate(3.000000, 3.000000)">
            <path d="M9.5,19 C14.7467054,19 19,14.7467054 19,9.5 C19,4.25329462 14.7467054,0 9.5,0 C4.25329462,0 0,4.25329462 0,9.5 C0,14.7467054 4.25329462,19 9.5,19 Z M9.5,19" id="Oval 1" fill="#000000"></path>
            <path d="M9.5,17 C13.6421358,17 17,13.6421358 17,9.5 C17,5.35786417 13.6421358,2 9.5,2 C5.35786417,2 2,5.35786417 2,9.5 C2,13.6421358 5.35786417,17 9.5,17 Z M9.5,17" id="Oval 1" fill="#FFFDFD"></path>
            <path d="M9.5,14 C11.9852815,14 14,11.9852815 14,9.5 C14,7.0147185 11.9852815,5 9.5,5 C7.0147185,5 5,7.0147185 5,9.5 C5,11.9852815 7.0147185,14 9.5,14 Z M9.5,14" id="Oval 1" fill="#000000"></path>
        </g>
    </g>
</svg>