<?xml version="1.0" encoding="UTF-8" standalone="no"?>
<svg width="81px" height="81px" viewBox="0 0 81 81" version="1.1" xmlns="http://www.w3.org/2000/svg" xmlns:xlink="http://www.w3.org/1999/xlink" xmlns:sketch="http://www.bohemiancoding.com/sketch/ns">
    <title>rwzi</title>
    <description>Created with Sketch (http://www.bohemiancoding.com/sketch)</description>
    <defs></defs>
    <g id="Page 1" stroke="none" stroke-width="1" fill="none" fill-rule="evenodd">
        <g id="RWZI">
            <path d="M40.5,81 C62.8675335,81 81,62.8675335 81,40.5 C81,18.1324665 62.8675335,0 40.5,0 C18.1324665,0 0,18.1324665 0,40.5 C0,62.8675335 18.1324665,81 40.5,81 Z M40.5,81" id="Oval 3" fill="#000000"></path>
            <path d="M40,70 C56.5685433,70 70,56.5685433 70,40 C70,23.4314567 56.5685433,10 40,10 C23.4314567,10 10,23.4314567 10,40 C10,56.5685433 23.4314567,70 40,70 Z M40,70" id="Oval 4" stroke="#979797" fill="#FFFFFF"></path>
            <path d="M40,47 C43.8659934,47 47,43.8659934 47,40 C47,36.1340066 43.8659934,33 40,33 C36.1340066,33 33,36.1340066 33,40 C33,43.8659934 36.1340066,47 40,47 Z M40,47" id="Oval 4" fill="#000000"></path>
            <path d="M34.6518555,43.6914062 L59.1083984,65.7016602 L66.7871094,57.2265625 L43.9570312,34.2207031 L34.6518555,43.6914062 Z M34.6518555,43.6914062" id="Path 1" fill="#000000"></path>
        </g>
    </g>
</svg>